<?xml version="1.0" encoding="utf-8"?>
<!-- Generator: Adobe Illustrator 23.0.4, SVG Export Plug-In . SVG Version: 6.00 Build 0)  -->
<svg version="1.1" id="Capa_1" xmlns="http://www.w3.org/2000/svg" xmlns:xlink="http://www.w3.org/1999/xlink" x="0px" y="0px"
	 viewBox="0 0 213.7 213.7" style="enable-background:new 0 0 213.7 213.7;" xml:space="preserve">
<style type="text/css">
	.st0{fill:#FFFFFF;}
</style>
<path class="st0" d="M106.8,213.7c-0.4,0-0.8,0-1.1,0c-3.9-0.1-17.3-0.8-27.4-3c-12.4-2.7-19.4-4.5-25.3-7.3
	c-4.6-2.2-6.1-5.4-6.5-7.4c-4.6-1-19.3-5-30.9-15.8c-5-4.6-7.9-9.1-9.6-12.9c0,0,0-0.1-0.1-0.1c-3-7-1.9-11.9-1.8-12.2
	c0-0.1,0.1-0.2,0.1-0.3L40,71.9c-0.3-3.7-1.3-24.1,12.8-44.9C66.1,7.6,89.7,5.4,96.8,5.2V2c0-1.1,0.9-2,2-2h16.1c1.1,0,2,0.9,2,2
	v3.2c7.1,0.2,30.7,2.4,44,21.9C175,47.8,174,68.2,173.7,71.9l35.8,82.7c0,0.1,0.1,0.2,0.1,0.3c0.1,0.3,1.2,5.2-1.8,12.1
	c0,0.1-0.1,0.2-0.1,0.3c-1.7,3.8-4.6,8.2-9.5,12.8c-11.7,10.8-26.3,14.7-30.9,15.8c-0.4,2-1.9,5.2-6.5,7.4
	c-5.9,2.7-12.8,4.5-25.3,7.3c-10.1,2.2-23.5,2.9-27.4,3C107.6,213.6,107.2,213.7,106.8,213.7z M50.2,194c0,0.1,0,0.3,0,0.4
	c0,0.1,0,3.3,4.4,5.3c5.5,2.6,12.3,4.3,24.5,7c9.8,2.2,22.9,2.8,26.7,2.9c0.7,0,1.3,0,2,0c3.8-0.1,16.9-0.8,26.7-2.9
	c12.2-2.7,18.9-4.4,24.5-7c4.4-2.1,4.4-5.2,4.4-5.4c0-0.1,0-0.2,0-0.3c-0.5-2.2-2.2-9.9-6-20.5c-3.3-8.9-8.1-16.3-10.5-19.7
	c-1,0.9-2.3,1.6-3.7,1.8c-1.2,1.9-7.1,10.3-16.8,16.2c-10.6,6.4-18.5,9-18.9,9.2c-0.2,0.1-0.4,0.1-0.6,0.1l0,0l0,0
	c-0.2,0-0.4,0-0.6-0.1c-0.5-0.1-8.4-2.8-18.9-9.2c-9.8-5.9-15.6-14.3-16.8-16.2c-1.4-0.2-2.7-0.9-3.7-1.8
	c-2.4,3.4-7.2,10.8-10.5,19.7C52.4,184.1,50.7,191.8,50.2,194z M9.9,166.4c1.5,3.2,4.1,6.9,8.3,10.8c10.3,9.5,23.4,13.4,28.3,14.6
	c0.5-2.4,1.6-6.7,3.4-12.4c0.4-1.3,2.4-8.9,2.4-25.8c0-18.6-5.4-38.8-5.5-39.3c0,0,0,0,0,0l0,0c0,0,0,0,0,0
	c-0.1-0.5-0.1-0.9,0.1-1.4c0,0,0,0,0,0l0,0c0-0.1,0.1-0.2,0.1-0.3c0.2-0.4,0.6-0.6,1.1-0.8c0,0,0,0,0,0l0,0c0,0,0.1,0,0.1,0
	c0,0,0,0,0,0c0,0,0.1,0,0.1,0l46.1-8.7c0.8-0.2,1.7,0.2,2.1,0.9c0.4,0.7,0.4,1.6-0.2,2.3l-25.2,31.3c-0.4,0.5-0.9,0.7-1.5,0.7
	c-0.6,0-1.1-0.2-1.5-0.6l-15.8-17.1c1.6,7.8,3.9,20.5,3.9,32.9c0,3.8-0.1,7.1-0.3,10.1c3.4-6.8,7-11.9,8.4-13.7
	c-0.1-0.6-0.2-1.1-0.2-1.7c0-4.1,3.3-7.4,7.4-7.4c2.1,0,4,0.9,5.3,2.3l22.6-39.5c1.6-2.9,4.2-4.5,7.1-4.5s5.5,1.6,7.1,4.5l3,5.2
	c0,0,0,0.1,0.1,0.1l19.6,34.3c1.3-1.4,3.3-2.3,5.4-2.3c4.1,0,7.4,3.3,7.4,7.4c0,0.6-0.1,1.2-0.2,1.7c1.5,2,5.4,7.4,8.9,14.8
	c-0.2-3.2-0.3-6.9-0.3-11.2c0-12.7,2.4-25.8,4-33.5l-16.4,17.7c-0.4,0.4-1,0.6-1.5,0.6c-0.6,0-1.1-0.3-1.5-0.7l-25.2-31.3
	c-0.5-0.7-0.6-1.6-0.2-2.3c0.4-0.7,1.3-1.1,2.1-0.9l46,8.7c0.2,0,0.5,0,0.7,0.1c1.1,0.3,1.7,1.4,1.4,2.4c-0.1,0.2-5.5,20.6-5.5,39.3
	c0,18.4,2.4,25.9,2.4,26c0.2,0.5,0.1,0.9,0,1.4c1.5,4.9,2.4,8.7,2.9,10.8c4.9-1.2,18.1-5.1,28.3-14.6c4.2-3.9,6.8-7.6,8.3-10.8
	l-38.2-90.9c-1-1.4-10.1-13.7-26.2-15.3c-15.4-1.5-20.1,6.2-20.7,7.5c-0.2,1.5-1.1,5-5.4,6.6c-2.1,0.8-3.7,0.4-4.7-0.1
	c-0.7-0.3-1.2-0.8-1.7-1.2c-0.5,0.5-1,0.9-1.7,1.3c-1.4,0.7-3,0.7-4.7,0.1c-4.3-1.7-5.2-5.2-5.4-6.7c-0.6-1.2-5.3-9-20.7-7.5
	c-16,1.6-25.1,13.9-26.2,15.3L9.9,166.4z M74.9,155c2.2,3,7.2,9,14.5,13.4c8.5,5.2,15.4,7.8,17.4,8.6c2-0.7,8.9-3.4,17.4-8.6
	c7.3-4.4,12.3-10.4,14.5-13.4c-2.2-1.1-3.9-3.3-4.1-5.9H79C78.8,151.7,77.2,153.9,74.9,155z M7.9,156c-0.1,0.5-0.3,2.1,0.1,4.6
	l36.5-86.8c0-0.1,0.1-0.2,0.2-0.3c0.4-0.6,10.3-15.3,29.2-17.2c15.3-1.5,21.8,5.3,24,8.5c1.4-0.3,3.6-0.6,5.4-0.2
	c1.5,0.3,2.6,1.1,3.5,1.8c0.9-0.7,2-1.5,3.5-1.8c1.8-0.4,4-0.1,5.4,0.2c2.1-3.2,8.6-10,24-8.5c18.9,1.9,28.8,16.6,29.2,17.2
	c0.1,0.1,0.1,0.2,0.2,0.3l36.5,86.8c0.4-2.5,0.2-4.1,0.1-4.6l-35.9-83c-0.1-0.3-0.2-0.7-0.2-1c0-0.2,2.3-21.6-12.1-42.7
	c-12.1-17.7-34.1-19.8-40.7-20.1v44.7c4.6-3.2,13.3-8.3,23.1-7.9c13.9,0.5,25.4,11.5,25.9,12c0.8,0.8,0.8,2,0.1,2.8
	c-0.8,0.8-2,0.8-2.8,0.1c-0.1-0.1-10.9-10.4-23.3-10.8c-12.4-0.5-23.5,9.4-23.6,9.5c-0.6,0.5-1.4,0.7-2.2,0.3
	c-0.7-0.3-1.2-1-1.2-1.8V7.2c0-0.1,0-0.2,0-0.3V4h-12.1v2.9c0,0.1,0,0.2,0,0.3V58c0,0.8-0.5,1.5-1.2,1.8c-0.7,0.3-1.6,0.2-2.2-0.3
	c-0.1-0.1-11.2-10-23.6-9.5c-12.4,0.5-23.2,10.7-23.3,10.8c-0.8,0.8-2.1,0.7-2.8-0.1C47,60,47,58.7,47.8,58c0.5-0.5,12-11.4,25.9-12
	c9.8-0.4,18.5,4.7,23.1,7.9V9.2c-6.6,0.2-28.6,2.4-40.7,20.1C41.7,50.4,44,71.8,44,72c0,0.3,0,0.7-0.2,1L7.9,156z M142,145
	c-1.9,0-3.4,1.5-3.4,3.4s1.5,3.4,3.4,3.4s3.4-1.5,3.4-3.4S143.8,145,142,145z M71.7,145c-1.9,0-3.4,1.5-3.4,3.4s1.5,3.4,3.4,3.4
	s3.4-1.5,3.4-3.4S73.6,145,71.7,145z M125.5,145.1h7.5l-7.5-13.1V145.1z M117.2,145.1h4.3v-20c0,0,0,0,0,0l-4.3-7.6V145.1z
	 M108.8,145.1h4.3v-34.6l-2.7-4.8c-0.4-0.8-1-1.4-1.6-1.8V145.1z M100.5,145.1h4.3v-41.3c-0.7,0.4-1.3,1.1-1.7,1.9l-2.6,4.6
	c0,0.1,0,0.2,0,0.3L100.5,145.1L100.5,145.1z M92.2,145.1h4.3v-27.9l-4.3,7.6c0,0.1,0,0.2,0,0.3L92.2,145.1L92.2,145.1z M80.5,145.1
	h7.6v-13.3L80.5,145.1z M123.6,108.2l20.4,25.3l16.9-18.3L123.6,108.2z M52.8,115.2l16.9,18.3l20.4-25.3L52.8,115.2z M99.4,68.5
	c0.4,0.7,1.1,1.6,2.5,2.1c0.8,0.3,1.2,0.2,1.5,0.1c0.5-0.2,0.8-0.7,1.1-1.1c-0.5-0.5-1.2-1-2-1.2C101.6,68.2,100.4,68.3,99.4,68.5z
	 M109.2,69.5c0.3,0.4,0.7,0.9,1.1,1.1c0.3,0.1,0.7,0.2,1.5-0.1c1.4-0.5,2.1-1.4,2.5-2.1c-1.1-0.2-2.2-0.3-3.1-0.1
	C110.3,68.6,109.6,69.1,109.2,69.5z M138.4,101.2c-3.9,0-7.8-0.4-11.3-1.3c-6.5-1.8-10.4-6.4-11.4-13.3c-0.1-0.6-0.1-1.2-0.1-1.8
	c-0.2-6.6,3.7-13,9.8-16.2c4.7-2.5,10.2-3.8,16.2-3.8c16.6,0,22.6,13.8,23,20.6c0.3,5.8-2.6,13-11.8,14.5
	C148.5,100.6,143.4,101.2,138.4,101.2z M141.5,68.9c-5.3,0-10.2,1.1-14.3,3.3c-4.8,2.5-7.8,7.4-7.6,12.5c0,0.5,0.1,0.9,0.1,1.3
	c0,0,0,0,0,0c0.8,5.3,3.6,8.7,8.5,10c7.5,2.1,18.2,0.9,23.9,0c8.3-1.3,8.5-8.3,8.4-10.4C160.3,82.1,156.5,68.9,141.5,68.9z
	 M75.3,101.2c-5.1,0-10.2-0.6-14.3-1.3c-9.2-1.5-12.1-8.7-11.8-14.5c0.4-6.7,6.4-20.6,23-20.6c6,0,11.4,1.3,16.2,3.8
	c6.1,3.2,10,9.6,9.8,16.2c0,0.6-0.1,1.2-0.1,1.8c-1,6.9-4.9,11.5-11.4,13.3C83.1,100.9,79.2,101.2,75.3,101.2z M72.2,68.9
	c-15,0-18.8,13.2-19,16.8c-0.1,2.1,0.2,9,8.4,10.4c5.7,0.9,16.4,2.1,23.9,0c4.9-1.4,7.8-4.7,8.5-10c0.1-0.4,0.1-0.8,0.1-1.3l0,0
	c0.1-5.1-2.9-10-7.6-12.5C82.3,70,77.5,68.9,72.2,68.9z M111.9,95.3h-10.2c-1.1,0-2-0.9-2-2s0.9-2,2-2h10.2c1.1,0,2,0.9,2,2
	S113,95.3,111.9,95.3z M110,89.3h-6.3c-1.1,0-2-0.9-2-2s0.9-2,2-2h6.3c1.1,0,2,0.9,2,2S111.1,89.3,110,89.3z M110,83.1h-6.3
	c-1.1,0-2-0.9-2-2s0.9-2,2-2h6.3c1.1,0,2,0.9,2,2S111.1,83.1,110,83.1z"/>
</svg>
